<svg width="24" height="23" viewBox="0 0 24 23" fill="none" xmlns="http://www.w3.org/2000/svg">
<path d="M9 21.9525C9.55228 21.9525 10 21.5058 10 20.9548C10 20.4037 9.55228 19.957 9 19.957C8.44772 19.957 8 20.4037 8 20.9548C8 21.5058 8.44772 21.9525 9 21.9525Z" stroke="black" stroke-width="2" stroke-linecap="round" stroke-linejoin="round"/>
<path d="M20 21.9525C20.5523 21.9525 21 21.5058 21 20.9548C21 20.4037 20.5523 19.957 20 19.957C19.4477 19.957 19 20.4037 19 20.9548C19 21.5058 19.4477 21.9525 20 21.9525Z" stroke="black" stroke-width="2" stroke-linecap="round" stroke-linejoin="round"/>
<path d="M1 1H5L7.68 14.3597C7.77144 14.8191 8.02191 15.2317 8.38755 15.5254C8.75318 15.819 9.2107 15.975 9.68 15.9661H19.4C19.8693 15.975 20.3268 15.819 20.6925 15.5254C21.0581 15.2317 21.3086 14.8191 21.4 14.3597L23 5.98869H6" stroke="black" stroke-width="2" stroke-linecap="round" stroke-linejoin="round"/>
</svg>
