<svg width="43" height="41" viewBox="0 0 43 41" fill="none" xmlns="http://www.w3.org/2000/svg">
<path d="M16.1273 39.0001C17.1026 39.0001 17.8932 38.2113 17.8932 37.2382C17.8932 36.2651 17.1026 35.4763 16.1273 35.4763C15.1521 35.4763 14.3615 36.2651 14.3615 37.2382C14.3615 38.2113 15.1521 39.0001 16.1273 39.0001Z" stroke="black" stroke-width="3" stroke-linecap="round" stroke-linejoin="round"/>
<path d="M35.5525 39.0001C36.5278 39.0001 37.3184 38.2113 37.3184 37.2382C37.3184 36.2651 36.5278 35.4763 35.5525 35.4763C34.5772 35.4763 33.7866 36.2651 33.7866 37.2382C33.7866 38.2113 34.5772 39.0001 35.5525 39.0001Z" stroke="black" stroke-width="3" stroke-linecap="round" stroke-linejoin="round"/>
<path d="M2 2H9.06355L13.7961 25.5917C13.9576 26.4029 14.3999 27.1315 15.0456 27.6501C15.6912 28.1687 16.4992 28.4442 17.3279 28.4284H34.4923C35.321 28.4442 36.129 28.1687 36.7746 27.6501C37.4203 27.1315 37.8626 26.4029 38.0241 25.5917L40.8495 10.8095H10.8294" stroke="black" stroke-width="3" stroke-linecap="round" stroke-linejoin="round"/>
</svg>
